# xmcd CD database file
#
# Track frame offsets:
#	150
#	17565
#	109735
#	179692
#	235210
#	278560
#
# Disc length: 3912 seconds
#
# Revision: 2
# Processed by: cddbd v1.5.2PL0 Copyright (c) Steve Scherf et al.
# Submitted via: CD2WAV32(JP) R3.22
#
DISCID=480f4606
DTITLE=川井憲次 - 無責任艦長タイラー MUSIC FILE 5A ”天真爛漫” ～TENSHINRANMAN～
DYEAR=1994
DGENRE=Anime
TTITLE0=Just Think Of Tomorrow <English Version>
TTITLE1=<銀河無責任シアター(1)>「あぁ、酔いどれ天国」
TTITLE2=<銀河無責任シアター(2)>「女三人、会議は踊る」
TTITLE3=<銀河無責任シアター(3)>「扉を開けて」
TTITLE4=<銀河無責任シアター(4)>「扉よ、開かないで」
TTITLE5=あり"Fureta"恋
EXTD=
EXTT0=
EXTT1=
EXTT2=
EXTT3=
EXTT4=
EXTT5=
PLAYORDER=
